<mxfile host="app.diagrams.net" modified="2024-06-30T01:45:53.417Z" agent="Mozilla/5.0 (Windows NT 10.0; Win64; x64) AppleWebKit/537.36 (KHTML, like Gecko) Chrome/126.0.0.0 Safari/537.36 Edg/126.0.0.0" etag="GJls436i4pjtpLn3T6ae" version="24.6.4" type="github">
  <diagram name="Página-1" id="gYhum7ljytBpoa15r5p-">
    <mxGraphModel dx="2081" dy="733" grid="1" gridSize="10" guides="1" tooltips="1" connect="1" arrows="1" fold="1" page="1" pageScale="1" pageWidth="827" pageHeight="1169" math="0" shadow="0">
      <root>
        <mxCell id="0" />
        <mxCell id="1" parent="0" />
        <mxCell id="QgO8SwqlqUL5KBMX8Alq-1" value="LearnSphere" style="shape=umlFrame;whiteSpace=wrap;html=1;pointerEvents=0;width=100;height=30;" parent="1" vertex="1">
          <mxGeometry x="110" y="370" width="750" height="900" as="geometry" />
        </mxCell>
        <mxCell id="mpmZmZ09PBH8B9MmkLu_-16" style="edgeStyle=orthogonalEdgeStyle;rounded=0;orthogonalLoop=1;jettySize=auto;html=1;endArrow=none;endFill=0;" parent="1" source="QgO8SwqlqUL5KBMX8Alq-2" target="QgO8SwqlqUL5KBMX8Alq-7" edge="1">
          <mxGeometry relative="1" as="geometry" />
        </mxCell>
        <mxCell id="mpmZmZ09PBH8B9MmkLu_-17" style="edgeStyle=orthogonalEdgeStyle;rounded=0;orthogonalLoop=1;jettySize=auto;html=1;entryX=0;entryY=0.5;entryDx=0;entryDy=0;endArrow=none;endFill=0;" parent="1" source="QgO8SwqlqUL5KBMX8Alq-2" target="QgO8SwqlqUL5KBMX8Alq-12" edge="1">
          <mxGeometry relative="1" as="geometry" />
        </mxCell>
        <mxCell id="mpmZmZ09PBH8B9MmkLu_-18" style="edgeStyle=orthogonalEdgeStyle;rounded=0;orthogonalLoop=1;jettySize=auto;html=1;entryX=0;entryY=0.5;entryDx=0;entryDy=0;startArrow=none;startFill=0;endArrow=none;endFill=0;" parent="1" source="QgO8SwqlqUL5KBMX8Alq-2" target="QgO8SwqlqUL5KBMX8Alq-15" edge="1">
          <mxGeometry relative="1" as="geometry" />
        </mxCell>
        <mxCell id="QgO8SwqlqUL5KBMX8Alq-2" value="Pessoa" style="shape=umlActor;verticalLabelPosition=bottom;verticalAlign=top;html=1;outlineConnect=0;" parent="1" vertex="1">
          <mxGeometry x="-10" y="525" width="30" height="60" as="geometry" />
        </mxCell>
        <mxCell id="mpmZmZ09PBH8B9MmkLu_-21" style="edgeStyle=orthogonalEdgeStyle;rounded=0;orthogonalLoop=1;jettySize=auto;html=1;endArrow=none;endFill=0;" parent="1" source="QgO8SwqlqUL5KBMX8Alq-3" target="QgO8SwqlqUL5KBMX8Alq-24" edge="1">
          <mxGeometry relative="1" as="geometry" />
        </mxCell>
        <mxCell id="mpmZmZ09PBH8B9MmkLu_-22" style="edgeStyle=orthogonalEdgeStyle;rounded=0;orthogonalLoop=1;jettySize=auto;html=1;entryX=0;entryY=0.5;entryDx=0;entryDy=0;endArrow=none;endFill=0;" parent="1" source="QgO8SwqlqUL5KBMX8Alq-3" target="QgO8SwqlqUL5KBMX8Alq-26" edge="1">
          <mxGeometry relative="1" as="geometry" />
        </mxCell>
        <mxCell id="mpmZmZ09PBH8B9MmkLu_-23" style="edgeStyle=orthogonalEdgeStyle;rounded=0;orthogonalLoop=1;jettySize=auto;html=1;entryX=0;entryY=0.5;entryDx=0;entryDy=0;endArrow=none;endFill=0;" parent="1" source="QgO8SwqlqUL5KBMX8Alq-3" target="QgO8SwqlqUL5KBMX8Alq-25" edge="1">
          <mxGeometry relative="1" as="geometry" />
        </mxCell>
        <mxCell id="mpmZmZ09PBH8B9MmkLu_-31" style="edgeStyle=orthogonalEdgeStyle;rounded=0;orthogonalLoop=1;jettySize=auto;html=1;entryX=0;entryY=0.5;entryDx=0;entryDy=0;endArrow=none;endFill=0;" parent="1" source="QgO8SwqlqUL5KBMX8Alq-3" target="QgO8SwqlqUL5KBMX8Alq-35" edge="1">
          <mxGeometry relative="1" as="geometry" />
        </mxCell>
        <mxCell id="mpmZmZ09PBH8B9MmkLu_-32" style="edgeStyle=orthogonalEdgeStyle;rounded=0;orthogonalLoop=1;jettySize=auto;html=1;entryX=0;entryY=0.5;entryDx=0;entryDy=0;endArrow=none;endFill=0;" parent="1" source="QgO8SwqlqUL5KBMX8Alq-3" target="QgO8SwqlqUL5KBMX8Alq-33" edge="1">
          <mxGeometry relative="1" as="geometry" />
        </mxCell>
        <mxCell id="zMIlw6AJ1ZsYrhMKJb7v-5" style="edgeStyle=orthogonalEdgeStyle;rounded=0;orthogonalLoop=1;jettySize=auto;html=1;entryX=0;entryY=0.5;entryDx=0;entryDy=0;endArrow=none;endFill=0;" parent="1" source="QgO8SwqlqUL5KBMX8Alq-3" target="zMIlw6AJ1ZsYrhMKJb7v-4" edge="1">
          <mxGeometry relative="1" as="geometry" />
        </mxCell>
        <mxCell id="QgO8SwqlqUL5KBMX8Alq-3" value="Usuário" style="shape=umlActor;verticalLabelPosition=bottom;verticalAlign=top;html=1;outlineConnect=0;" parent="1" vertex="1">
          <mxGeometry x="-10" y="890" width="30" height="60" as="geometry" />
        </mxCell>
        <mxCell id="zMIlw6AJ1ZsYrhMKJb7v-1" style="edgeStyle=orthogonalEdgeStyle;rounded=0;orthogonalLoop=1;jettySize=auto;html=1;entryX=1;entryY=0.5;entryDx=0;entryDy=0;endArrow=none;endFill=0;" parent="1" source="QgO8SwqlqUL5KBMX8Alq-4" target="mpmZmZ09PBH8B9MmkLu_-34" edge="1">
          <mxGeometry relative="1" as="geometry" />
        </mxCell>
        <mxCell id="zMIlw6AJ1ZsYrhMKJb7v-3" style="edgeStyle=orthogonalEdgeStyle;rounded=0;orthogonalLoop=1;jettySize=auto;html=1;endArrow=none;endFill=0;" parent="1" source="QgO8SwqlqUL5KBMX8Alq-4" target="zMIlw6AJ1ZsYrhMKJb7v-2" edge="1">
          <mxGeometry relative="1" as="geometry" />
        </mxCell>
        <mxCell id="QgO8SwqlqUL5KBMX8Alq-4" value="Fornecedor" style="shape=umlActor;verticalLabelPosition=bottom;verticalAlign=top;html=1;outlineConnect=0;" parent="1" vertex="1">
          <mxGeometry x="950" y="525" width="30" height="60" as="geometry" />
        </mxCell>
        <mxCell id="QgO8SwqlqUL5KBMX8Alq-7" value="Ver Cursos" style="ellipse;whiteSpace=wrap;html=1;" parent="1" vertex="1">
          <mxGeometry x="150" y="520" width="140" height="70" as="geometry" />
        </mxCell>
        <mxCell id="QgO8SwqlqUL5KBMX8Alq-12" value="Pesquisar Cursos&lt;br&gt;(SearchHandler)" style="ellipse;whiteSpace=wrap;html=1;" parent="1" vertex="1">
          <mxGeometry x="150" y="430" width="140" height="70" as="geometry" />
        </mxCell>
        <mxCell id="QgO8SwqlqUL5KBMX8Alq-15" value="Fazer Login/Cadastro" style="ellipse;whiteSpace=wrap;html=1;" parent="1" vertex="1">
          <mxGeometry x="150" y="610" width="140" height="70" as="geometry" />
        </mxCell>
        <mxCell id="QgO8SwqlqUL5KBMX8Alq-24" value="Comprar Curso" style="ellipse;whiteSpace=wrap;html=1;" parent="1" vertex="1">
          <mxGeometry x="150" y="885" width="140" height="70" as="geometry" />
        </mxCell>
        <mxCell id="QgO8SwqlqUL5KBMX8Alq-25" value="Visitar Perfil" style="ellipse;whiteSpace=wrap;html=1;" parent="1" vertex="1">
          <mxGeometry x="150" y="790" width="140" height="70" as="geometry" />
        </mxCell>
        <mxCell id="QgO8SwqlqUL5KBMX8Alq-26" value="Visitar Configurações" style="ellipse;whiteSpace=wrap;html=1;" parent="1" vertex="1">
          <mxGeometry x="150" y="980" width="140" height="70" as="geometry" />
        </mxCell>
        <mxCell id="QgO8SwqlqUL5KBMX8Alq-33" value="Pedir para virar&lt;div&gt;Fornecedor&lt;/div&gt;" style="ellipse;whiteSpace=wrap;html=1;" parent="1" vertex="1">
          <mxGeometry x="150" y="1080" width="140" height="70" as="geometry" />
        </mxCell>
        <mxCell id="QgO8SwqlqUL5KBMX8Alq-35" value="Modificar/Atualizar&lt;div&gt;&lt;span style=&quot;background-color: initial;&quot;&gt;Perfil&lt;/span&gt;&lt;br&gt;&lt;/div&gt;" style="ellipse;whiteSpace=wrap;html=1;" parent="1" vertex="1">
          <mxGeometry x="150" y="700" width="140" height="70" as="geometry" />
        </mxCell>
        <mxCell id="mpmZmZ09PBH8B9MmkLu_-7" value="&amp;lt;include&amp;gt;" style="text;html=1;align=center;verticalAlign=middle;resizable=0;points=[];autosize=1;strokeColor=none;fillColor=none;rotation=-30;" parent="1" vertex="1">
          <mxGeometry x="300" y="760" width="80" height="30" as="geometry" />
        </mxCell>
        <mxCell id="mpmZmZ09PBH8B9MmkLu_-10" value="Logar na Conta" style="ellipse;whiteSpace=wrap;html=1;" parent="1" vertex="1">
          <mxGeometry x="430" y="700" width="140" height="70" as="geometry" />
        </mxCell>
        <mxCell id="mpmZmZ09PBH8B9MmkLu_-24" value="" style="endArrow=none;endSize=12;dashed=1;html=1;rounded=0;exitX=1;exitY=0.5;exitDx=0;exitDy=0;entryX=0;entryY=0.5;entryDx=0;entryDy=0;endFill=0;" parent="1" source="QgO8SwqlqUL5KBMX8Alq-25" target="mpmZmZ09PBH8B9MmkLu_-10" edge="1">
          <mxGeometry width="160" relative="1" as="geometry">
            <mxPoint x="490" y="750" as="sourcePoint" />
            <mxPoint x="650" y="750" as="targetPoint" />
          </mxGeometry>
        </mxCell>
        <mxCell id="mpmZmZ09PBH8B9MmkLu_-25" value="" style="endArrow=none;endSize=12;dashed=1;html=1;rounded=0;exitX=1;exitY=0.5;exitDx=0;exitDy=0;entryX=0;entryY=0.5;entryDx=0;entryDy=0;endFill=0;" parent="1" source="QgO8SwqlqUL5KBMX8Alq-24" target="mpmZmZ09PBH8B9MmkLu_-10" edge="1">
          <mxGeometry width="160" relative="1" as="geometry">
            <mxPoint x="300" y="835" as="sourcePoint" />
            <mxPoint x="380" y="730" as="targetPoint" />
          </mxGeometry>
        </mxCell>
        <mxCell id="mpmZmZ09PBH8B9MmkLu_-26" value="" style="endArrow=none;endSize=12;dashed=1;html=1;rounded=0;exitX=1;exitY=0.5;exitDx=0;exitDy=0;entryX=0;entryY=0.5;entryDx=0;entryDy=0;endFill=0;" parent="1" source="QgO8SwqlqUL5KBMX8Alq-26" target="mpmZmZ09PBH8B9MmkLu_-10" edge="1">
          <mxGeometry width="160" relative="1" as="geometry">
            <mxPoint x="490" y="750" as="sourcePoint" />
            <mxPoint x="410" y="790" as="targetPoint" />
          </mxGeometry>
        </mxCell>
        <mxCell id="mpmZmZ09PBH8B9MmkLu_-34" value="Vender Curso" style="ellipse;whiteSpace=wrap;html=1;" parent="1" vertex="1">
          <mxGeometry x="650" y="430" width="140" height="70" as="geometry" />
        </mxCell>
        <mxCell id="zMIlw6AJ1ZsYrhMKJb7v-2" value="Atualizar Curso" style="ellipse;whiteSpace=wrap;html=1;" parent="1" vertex="1">
          <mxGeometry x="650" y="520" width="140" height="70" as="geometry" />
        </mxCell>
        <mxCell id="zMIlw6AJ1ZsYrhMKJb7v-4" value="Avaliar Curso" style="ellipse;whiteSpace=wrap;html=1;" parent="1" vertex="1">
          <mxGeometry x="150" y="1180" width="140" height="70" as="geometry" />
        </mxCell>
        <mxCell id="zMIlw6AJ1ZsYrhMKJb7v-6" value="&lt;p style=&quot;margin:0px;margin-top:4px;text-align:center;&quot;&gt;&lt;b&gt;Cursos&lt;/b&gt;&lt;/p&gt;&lt;hr size=&quot;1&quot; style=&quot;border-style:solid;&quot;&gt;&lt;p style=&quot;margin:0px;margin-left:4px;&quot;&gt;- id: int &lt;br&gt;- titulo: varchar(200) &lt;br&gt;- subtitulo: varchar(500) &lt;br&gt;- foto: blob&lt;br&gt;- desc_principal: varchar&lt;br&gt;- desc_secundaria: varchar(5000) &lt;br&gt;- atualizacao: date&lt;br&gt;- estrelas: int&lt;br&gt;- criador: varchar(500) &lt;br&gt;- duracao: varchar(100)&lt;br&gt;&lt;/p&gt;&lt;p style=&quot;margin:0px;margin-left:4px;&quot;&gt;- preco&lt;/p&gt;&lt;hr size=&quot;1&quot; style=&quot;border-style:solid;&quot;&gt;&lt;p style=&quot;margin:0px;margin-left:4px;&quot;&gt;&lt;br&gt;&lt;/p&gt;" style="verticalAlign=top;align=left;overflow=fill;html=1;whiteSpace=wrap;" parent="1" vertex="1">
          <mxGeometry x="1520" y="770" width="230" height="220" as="geometry" />
        </mxCell>
        <mxCell id="zMIlw6AJ1ZsYrhMKJb7v-9" style="edgeStyle=orthogonalEdgeStyle;rounded=0;orthogonalLoop=1;jettySize=auto;html=1;" parent="1" source="zMIlw6AJ1ZsYrhMKJb7v-8" target="zMIlw6AJ1ZsYrhMKJb7v-6" edge="1">
          <mxGeometry relative="1" as="geometry" />
        </mxCell>
        <mxCell id="zMIlw6AJ1ZsYrhMKJb7v-8" value="&lt;p style=&quot;margin:0px;margin-top:4px;text-align:center;&quot;&gt;&lt;b&gt;Usuarios&lt;/b&gt;&lt;/p&gt;&lt;hr size=&quot;1&quot; style=&quot;border-style:solid;&quot;&gt;&lt;p style=&quot;margin:0px;margin-left:4px;&quot;&gt;&lt;span style=&quot;color: var(--primary-text-color);&quot;&gt;- id: int &lt;/span&gt;&lt;br&gt;&lt;span style=&quot;color: var(--primary-text-color);&quot;&gt;- usuario: varchar(100) &lt;/span&gt;&lt;br&gt;&lt;span style=&quot;color: var(--primary-text-color);&quot;&gt;- email: varchar(80)  &lt;/span&gt;&lt;br&gt;&lt;span style=&quot;color: var(--primary-text-color);&quot;&gt;- celular: varchar(15)&lt;/span&gt;&lt;br&gt;&lt;span style=&quot;color: var(--primary-text-color);&quot;&gt;- senha: varchar(80) &lt;/span&gt;&lt;br&gt;&lt;span style=&quot;color: var(--primary-text-color);&quot;&gt;- provedor: boolean &lt;/span&gt;&lt;br&gt;&lt;span style=&quot;color: var(--primary-text-color);&quot;&gt;- admin: boolean&lt;/span&gt;&lt;br&gt;&lt;/p&gt;&lt;hr size=&quot;1&quot; style=&quot;border-style:solid;&quot;&gt;&lt;p style=&quot;margin:0px;margin-left:4px;&quot;&gt;&lt;br&gt;&lt;/p&gt;" style="verticalAlign=top;align=left;overflow=fill;html=1;whiteSpace=wrap;" parent="1" vertex="1">
          <mxGeometry x="1160" y="800" width="179" height="160" as="geometry" />
        </mxCell>
        <mxCell id="JI5zvhnLIWS72WdE5iui-7" style="edgeStyle=orthogonalEdgeStyle;rounded=0;orthogonalLoop=1;jettySize=auto;html=1;endArrow=none;endFill=0;" edge="1" parent="1" source="JI5zvhnLIWS72WdE5iui-1" target="JI5zvhnLIWS72WdE5iui-2">
          <mxGeometry relative="1" as="geometry" />
        </mxCell>
        <mxCell id="JI5zvhnLIWS72WdE5iui-8" style="edgeStyle=orthogonalEdgeStyle;rounded=0;orthogonalLoop=1;jettySize=auto;html=1;entryX=1;entryY=0.5;entryDx=0;entryDy=0;endArrow=none;endFill=0;" edge="1" parent="1" source="JI5zvhnLIWS72WdE5iui-1" target="JI5zvhnLIWS72WdE5iui-3">
          <mxGeometry relative="1" as="geometry" />
        </mxCell>
        <mxCell id="JI5zvhnLIWS72WdE5iui-1" value="Actor" style="shape=umlActor;verticalLabelPosition=bottom;verticalAlign=top;html=1;outlineConnect=0;" vertex="1" parent="1">
          <mxGeometry x="950" y="890" width="30" height="60" as="geometry" />
        </mxCell>
        <mxCell id="JI5zvhnLIWS72WdE5iui-2" value="Validar Curso" style="ellipse;whiteSpace=wrap;html=1;" vertex="1" parent="1">
          <mxGeometry x="610" y="845" width="140" height="70" as="geometry" />
        </mxCell>
        <mxCell id="JI5zvhnLIWS72WdE5iui-3" value="Avaliar Curso" style="ellipse;whiteSpace=wrap;html=1;" vertex="1" parent="1">
          <mxGeometry x="610" y="950" width="140" height="70" as="geometry" />
        </mxCell>
      </root>
    </mxGraphModel>
  </diagram>
</mxfile>
